<?xml version="1.0" encoding="UTF-8"?> <svg xmlns="http://www.w3.org/2000/svg" width="214.518" height="36.183" viewBox="0 0 214.518 36.183"><circle cx="4.127" cy="4.127" r="4.127" transform="translate(123.225)" fill="#252525"></circle><path d="M143.514,129.367v10.326c0,2.781.248,4.717,2.035,5.212v.845H135.272v-.845c1.936-.595,1.987-2.63,1.987-5.212V128.674c0-1.69-.447-2.433-2.482-3.477v-.843l8.737-1.987v7Z" transform="translate(-102.424 -110.801)" fill="#252525"></path><path d="M202.269,133.836H186.48c.4,4.865,2.882,7.4,6.209,8.141,2.68.6,6.649-.4,7.89-2.73l.845.447c-.793,2.583-3.723,6.5-10.377,6.5-6.5,0-10.97-6.007-10.97-11.815,0-7,4.766-12.013,11.617-12.013C198.894,122.368,202.269,126.091,202.269,133.836Zm-6.055-.845c0-6.253-2.037-9.778-4.766-9.778-2.931,0-4.968,5.012-4.968,9.778Z" transform="translate(-124.959 -110.801)" fill="#252525"></path><path d="M267.526,145.75H257.3v-.845c1.888-.546,1.989-2.68,1.989-5.212v-9.631c0-2.779-1.39-4.119-3.625-4.119-1.835,0-3.921,2.233-3.921,4.218v9.531c0,2.73.246,4.766,2.033,5.212v.845H243.552v-.845c1.884-.546,1.985-2.68,1.985-5.212v-9.631c0-2.779-1.342-4.119-3.573-4.119-1.839,0-3.974,2.282-3.974,4.071v9.78c0,2.728.3,4.616,2.037,5.111v.845H229.849v-.845c1.888-.546,1.936-2.581,1.936-5.111V128.92c0-1.736-.448-2.631-2.482-3.723v-.843l8.687-1.987v5.113a8.742,8.742,0,0,1,7.5-5.113c3.473,0,5.607,1.589,6.2,5.263a8.36,8.36,0,0,1,7.543-5.263c3.872,0,6.257,1.54,6.257,7.547v9.778c0,2.73.247,4.766,2.033,5.212Z" transform="translate(-149.446 -110.801)" fill="#252525"></path><path d="M323.747,144.905v.845H313.569v-.845c1.888-.595,1.985-2.68,1.985-5.212V128.674c0-1.69-.5-2.385-2.53-3.477v-.843l8.687-1.987v17.325C321.71,142.474,321.956,144.41,323.747,144.905Z" transform="translate(-191.093 -110.801)" fill="#252525"></path><path d="M436.149,145.75H425.922v-.845c1.888-.546,1.989-2.68,1.989-5.212v-9.631c0-2.779-1.39-4.119-3.625-4.119-1.835,0-3.921,2.233-3.921,4.218v9.531c0,2.73.246,4.766,2.033,5.212v.845H412.175v-.845c1.884-.546,1.985-2.68,1.985-5.212v-9.631c0-2.779-1.342-4.119-3.573-4.119-1.839,0-3.974,2.282-3.974,4.071v9.78c0,2.728.3,4.616,2.037,5.111v.845H398.472v-.845c1.888-.546,1.936-2.581,1.936-5.111V128.92c0-1.736-.449-2.631-2.482-3.723v-.843l8.687-1.987v5.113a8.741,8.741,0,0,1,7.494-5.113c3.477,0,5.611,1.589,6.209,5.263a8.36,8.36,0,0,1,7.543-5.263c3.872,0,6.257,1.54,6.257,7.547v9.778c0,2.73.247,4.766,2.033,5.212Z" transform="translate(-233.328 -110.801)" fill="#252525"></path><g transform="translate(151.044 11.567)"><path d="M379.5,141.182V122.368l-8.541.944v.843c2.534.3,2.332.944,2.332,3.972v11.219s-.006.007-.008.011v1.492l.008-.014v4.37s.052,1.142,1.391.944l7.349-1.292v-.845C379.942,143.763,379.5,143.565,379.5,141.182Z" transform="translate(-370.956 -122.368)" fill="#252525"></path></g><circle cx="4.127" cy="4.127" r="4.127" transform="translate(44.459 11.356)" fill="#252525"></circle><path d="M354.972,142.374a2.774,2.774,0,0,1-.937.2c-2.879,0-4.172-1.34-4.172-4.121V122.368l-8.933.944v.843c2.878.4,2.781.845,2.781,3.824V138.6c0,5.958,2.332,7.6,6.253,7.6a9.749,9.749,0,0,0,5.007-1.709Z" transform="translate(-204.975 -110.801)" fill="#252525"></path><path d="M99.837,109.38c0-8.29-7-10.028-16.88-10.028H70.4v.845c2.185,0,3.575,2.629,3.575,5.707v21.6c0,3.375-1.193,5.956-3.278,5.956v.845H87.027v-.845c-2.134,0-5.857-.346-5.857-5.956V100.2h1.787c4.867,0,8.737.346,8.737,9.184,0,6.666-2.244,8.484-5.447,8.98v.949C94.34,118.9,99.837,116.708,99.837,109.38Z" transform="translate(-70.398 -99.352)" fill="#252525"></path><circle cx="4.127" cy="4.127" r="4.127" transform="translate(206.264 27.929)" fill="#00a475"></circle><rect width="10.286" height="1.656" transform="translate(61.246 21.361)" fill="#252525"></rect></svg> 